# xmcd
#
# Track frame offsets:
#	150
#	17503
#	36573
#	52480
#	66289
#	78557
#	92389
#	107028
#	122154
#	139196
#	153953
#	165248
#	180954
#	197526
#	214880
#	229685
#	243877
#	258766
#	278441
#
# Disc length: 3947 seconds
#
# Revision: 1
# Processed by: cddbd v1.5.2PL0 Copyright (c) Steve Scherf et al.
# Submitted via: audiograbber 1.83.01
#
DISCID=f80f6913
DTITLE=Various Artist - CDX Volume 646 (April 10, 2017)
DYEAR=2017
DGENRE=Country
TTITLE0=Devin Dawson - All On Me 
TTITLE1=Charlie Worsham - Cut Your Groove
TTITLE2=Jerrod Niemann - God Made A Woman
TTITLE3=Eric Chesser - Good Times and Summer Days
TTITLE4=Canaan Smith - Like You That Way
TTITLE5=High Valley - She's With Me
TTITLE6=Jeremiah Richey - Chevy Van
TTITLE7=Richard Lynch - Cut And Paste
TTITLE8=Lucas Hoge - Dirty South
TTITLE9=Eileen Carey - Good Bad Girl
TTITLE10=Pete Schlegel - I Don't Drink Anymore
TTITLE11=Caleb Daugherty - I'm Outta' Here
TTITLE12=Eva Snyder - Queen
TTITLE13=Shotgun Wedding - South Of Somewhere
TTITLE14=Jeremy Michael - Talk
TTITLE15=Cody Johnson - Wild As You
TTITLE16=Stephanie Quayle - Winnebago
TTITLE17=Sliders.com - Electric Boogie Spanglish
TTITLE18=Sliders.com - Electric Boogie Spanglish (Acelar)
EXTD=
EXTT0=
EXTT1=
EXTT2=
EXTT3=
EXTT4=
EXTT5=
EXTT6=
EXTT7=
EXTT8=
EXTT9=
EXTT10=
EXTT11=
EXTT12=
EXTT13=
EXTT14=
EXTT15=
EXTT16=
EXTT17=
EXTT18=
PLAYORDER=
